<svg width="1200" height="128" fill="none" xmlns="http://www.w3.org/2000/svg"><g clip-path="url(#a)"><path fill="#E9D7FF" d="M0 0h1200v128H0z"/><path opacity=".5" d="M306.881-61.61h154.825L306.881 90.435V-61.609ZM909.956 91.825V-63L1062 91.825H909.956Z" fill="#fff"/><path fill-rule="evenodd" clip-rule="evenodd" d="M295.755 90.411h-151.93v-151.93h151.93V90.41ZM187.884 14.636c0 17.516 14.199 31.715 31.715 31.715s31.716-14.2 31.716-31.715c0-17.516-14.2-31.716-31.716-31.716-17.516 0-31.715 14.2-31.715 31.716Z" fill="#fff" opacity=".5"/><g opacity=".5" fill="#fff"><path d="M68.77 14.21c0-41.747 28.58-75.703 64.279-75.82V90.031c-35.6-.116-64.279-33.956-64.279-75.82ZM64.52 14.21c0 41.865-28.777 75.821-64.278 75.821v-151.64c35.501 0 64.278 33.956 64.278 75.82Z"/></g><g opacity=".5" fill="#fff"><path d="M673.934 14.21c0-41.747 28.579-75.703 64.278-75.82V90.031c-35.6-.116-64.278-33.956-64.278-75.82ZM669.684 14.21c0 41.865-28.777 75.821-64.278 75.821v-151.64c35.501 0 64.278 33.956 64.278 75.82Z"/></g><g opacity=".5" fill="#fff"><path d="M533.092 16.029c34.201 0 62.02 32.377 62.115 72.82H470.976c.191-40.33 27.914-72.82 62.116-72.82ZM533.092 11.211c-34.297 0-62.116-32.601-62.116-72.82h124.231c0 40.219-27.819 72.82-62.115 72.82Z"/></g><g opacity=".5" clip-path="url(#b)"><path d="M219.722 195.652c-41.976 0-76.022-39.9-76.022-89.124h152.043c0 49.224-34.046 89.124-76.021 89.124Z" fill="#fff"/></g><g opacity=".6" clip-path="url(#c)"><path fill-rule="evenodd" clip-rule="evenodd" d="M748.179 142.572v16.152L968.513-61.609H952.36L748.179 142.572Zm228.405-179.95V-53.53L756.258 166.796h16.152L976.584-37.378Zm0 16.15v16.15L804.709 166.795h-16.148L976.584-21.227Zm0 48.452V11.072L820.86 166.796h16.152L976.584 27.224Zm0 16.15v16.15L869.313 166.797h-16.151L976.584 43.374Zm0 48.45V75.677l-91.12 91.12h16.149l74.971-74.971Zm0 16.151v16.153l-42.668 42.668h-16.153l58.821-58.821Zm0 48.454v-16.151l-26.518 26.518h16.151l10.367-10.367Zm-228.405-30.008v-16.149L920.06-61.609h16.149l-188.03 188.03Zm0-48.45v16.15L903.91-61.608h-16.151L748.179 77.97Zm0-16.151V45.668L855.456-61.61h16.152L748.179 61.82Zm0-48.454v16.151l91.126-91.126h-16.151l-74.975 74.975Zm0-16.15v-16.151l42.674-42.674h16.15L748.179-2.785Zm0-48.452v16.15l26.523-26.523h-16.15l-10.373 10.373Z" fill="#fff"/></g><g opacity=".6" clip-path="url(#d)"><path fill-rule="evenodd" clip-rule="evenodd" d="M0 310.376v16.153l220.334-220.334h-16.152L0 310.376Zm228.406-179.95v-16.152L8.079 334.6h16.152l204.175-204.174Zm0 16.151v16.149L56.531 334.6H40.382l188.024-188.023Zm0 48.451v-16.151L72.682 334.6h16.151l139.573-139.572Zm0 16.151v16.15L121.135 334.6h-16.151l123.422-123.421Zm0 48.45V243.48l-91.121 91.12h16.149l74.972-74.971Zm0 16.151v16.152L185.737 334.6h-16.152l58.821-58.82Zm0 48.453v-16.15L201.888 334.6h16.15l10.368-10.367ZM0 294.226v-16.149l171.882-171.882h16.149L0 294.226Zm0-48.451v16.151l155.731-155.731H139.58L0 245.775Zm0-16.151v-16.152l107.277-107.277h16.153L0 229.624Zm0-48.454v16.151l91.127-91.126H74.976L0 181.17Zm0-16.15v-16.151l42.674-42.674h16.15L0 165.02Zm0-48.451v16.149l26.524-26.523h-16.15L0 116.569Z" fill="#fff"/></g></g><defs><clipPath id="a"><path fill="#fff" d="M0 0h1200v128H0z"/></clipPath><clipPath id="b"><path fill="#fff" transform="matrix(1 0 0 -1 143.7 238.77)" d="M0 0h152.044v132.575H0z"/></clipPath><clipPath id="c"><path fill="#fff" transform="matrix(0 1 1 0 748.179 -61.61)" d="M0 0h151.117v151.117H0z"/></clipPath><clipPath id="d"><path fill="#fff" transform="matrix(0 1 1 0 0 106.195)" d="M0 0h132.575v132.575H0z"/></clipPath></defs></svg>