<svg xmlns:mydata="http://www.w3.org/2000/svg" mydata:contrastcolor="ffffff" mydata:template="SingleColorHex2" mydata:presentation="2.5" mydata:layouttype="undefined" mydata:specialfontid="undefined" mydata:id1="929" mydata:id2="1034" mydata:companyname="Akshat Mittal" mydata:companytagline="" version="1.1" xmlns="http://www.w3.org/2000/svg" xmlns:xlink="http://www.w3.org/1999/xlink" viewBox="65 197.83579532199786 420.0000000000001 74.32844514044632" class="svg-third-tile" style="width: 28%; inset: auto 50px 50px auto; filter: drop-shadow(rgba(0, 0, 0, 0.6) 3px 2px 4px);"><g fill="none" fill-rule="none" stroke="none" stroke-width="1" stroke-linecap="butt" stroke-linejoin="miter" stroke-miterlimit="10" stroke-dasharray="" stroke-dashoffset="0" font-family="none" font-weight="none" font-size="none" text-anchor="none" style="mix-blend-mode: normal; fill: rgb(255, 255, 255);"><g data-paper-data="{&quot;isGlobalGroup&quot;:true,&quot;bounds&quot;:{&quot;x&quot;:65,&quot;y&quot;:197.83579532199786,&quot;width&quot;:420.0000000000001,&quot;height&quot;:74.32844514044632}}" style="fill: rgb(255, 255, 255);"><g data-paper-data="{&quot;isSecondaryText&quot;:true}" fill="#101820" fill-rule="nonzero" style="fill: rgb(255, 255, 255);"><path d="M193.62143,272.14387c0.99644,0 1.78953,-0.79309 1.78953,-1.76919c0,-0.95577 -0.73208,-1.97255 -1.58617,-3.49771l5.2059,-8.0122v11.87596l-1.42349,1.22013h4.47382l-1.42349,-1.22013v-11.77428l1.42349,-1.22013h-2.56228l-5.79563,8.9273l-4.9212,-8.9273h-2.21657l1.42349,1.64718v11.34723l-1.42349,1.22013h3.05033l-1.42349,-1.22013v-11.08287l4.61617,8.37824c-0.5694,0.89476 -0.99644,1.64718 -0.99644,2.33859c0,0.61007 0.32537,1.15913 0.79309,1.46416c0.24403,0.20336 0.5694,0.30503 0.99644,0.30503zM193.09271,271.63548c-0.54906,0 -1.05745,-0.52872 -1.05745,-1.2608c0,-0.58973 0.38638,-1.28114 0.9151,-2.13523c0.58973,0.99644 1.07778,1.85053 1.07778,2.37926c0,0.54906 -0.36604,1.01678 -0.93543,1.01678z" data-paper-data="{&quot;glyphName&quot;:&quot;M&quot;,&quot;glyphIndex&quot;:0,&quot;firstGlyphOfWord&quot;:true,&quot;word&quot;:1}" style="fill: rgb(255, 255, 255);"></path><path d="M230.6462,271.96085h4.47382l-1.42349,-1.22013v-11.77428l1.42349,-1.22013h-4.47382l1.42349,1.22013v11.77428z" data-paper-data="{&quot;glyphName&quot;:&quot;I&quot;,&quot;glyphIndex&quot;:1,&quot;word&quot;:1}" style="fill: rgb(255, 255, 255);"></path><path d="M265.25885,257.94966v12.79105l-1.40315,1.22013h4.45348l-1.42349,-1.22013v-12.79105h1.01678l4.06711,2.23691l-0.40671,-2.44026h-10.96086l-0.40671,2.44026l4.06711,-2.23691z" data-paper-data="{&quot;glyphName&quot;:&quot;T&quot;,&quot;glyphIndex&quot;:2,&quot;word&quot;:1}" style="fill: rgb(255, 255, 255);"></path><path d="M306.11219,257.94966v12.79105l-1.40315,1.22013h4.45348l-1.42349,-1.22013v-12.79105h1.01678l4.06711,2.23691l-0.40671,-2.44026h-10.96086l-0.40671,2.44026l4.06711,-2.23691z" data-paper-data="{&quot;glyphName&quot;:&quot;T&quot;,&quot;glyphIndex&quot;:3,&quot;word&quot;:1}" style="fill: rgb(255, 255, 255);"></path><path d="M345.25433,257.74631h-1.85053v0.20336h1.34215l-4.65684,12.70971l-1.60651,1.30147h3.00966l-1.1998,-1.22013l1.11845,-3.03h5.8363l1.15913,3.03l-1.1998,1.22013h4.51449l-1.62684,-1.30147zM341.47192,267.50737l2.8063,-7.6665l2.90798,7.6665z" data-paper-data="{&quot;glyphName&quot;:&quot;A&quot;,&quot;glyphIndex&quot;:4,&quot;word&quot;:1}" style="fill: rgb(255, 255, 255);"></path><path d="M390.7035,272.1642l0.48805,-2.84698l-4.47382,2.64362h-2.50127v-8.05287c0,-0.87443 0.02034,-1.72852 0.08134,-2.48094c1.42349,-1.01678 2.82664,-1.44382 2.82664,-2.62328c0,-0.69141 -0.46772,-1.05745 -1.07778,-1.05745c-2.1759,0 -3.21302,1.80986 -3.41637,4.94154c-1.05745,1.30147 -1.91154,3.29436 -1.91154,6.58871h0.20336c0,-3.091 0.73208,-4.98221 1.68785,-6.24301l-0.02034,0.87443v7.0361l-1.42349,1.22013zM384.31814,261.16268c0.18302,-1.87087 0.65074,-3.15201 1.85053,-3.15201c0.44738,0 0.73208,0.26436 0.75241,0.79309c0,0.99644 -1.15913,1.36248 -2.60295,2.35892z" data-paper-data="{&quot;glyphName&quot;:&quot;L&quot;,&quot;glyphIndex&quot;:5,&quot;lastGlyphOfWord&quot;:true,&quot;word&quot;:1}" style="fill: rgb(255, 255, 255);"></path></g><g data-paper-data="{&quot;isPrimaryText&quot;:true}" fill="#26d07c" fill-rule="nonzero" style="fill: rgb(255, 255, 255);"><path d="M228.79445,247.00846h-4.09047l-19.84313,-49.17267l-20.01719,49.17267h-3.82938v2.34984h2.95906v0h3.22016v0h4.78672v-2.34984h-3.82938l5.65703,-14.01203h21.93188l5.74406,14.01203h-3.74234v2.34984h4.69969v0h3.22016v0h3.13313zM195.02632,230.03736l9.83453,-24.10766l9.66047,24.10766z" data-paper-data="{&quot;glyphName&quot;:&quot;A&quot;,&quot;glyphIndex&quot;:0,&quot;firstGlyphOfWord&quot;:true,&quot;word&quot;:1}" style="fill: rgb(255, 255, 255);"></path><path d="M279.80928,246.57331h-4.1775l-23.23735,-23.15032l22.10594,-21.75782h3.74234v-2.785h-10.96594v2.785h2.95906l-21.40969,20.97454v-20.97454h3.82938v-2.785h-11.05297v2.785h4.09047v44.90813h-4.09047v2.785h11.05297v-2.785h-3.82938v-19.7561l1.30547,-1.3925l21.32266,21.1486h-2.61094v2.785h10.96594z" data-paper-data="{&quot;glyphName&quot;:&quot;K&quot;,&quot;glyphIndex&quot;:1,&quot;word&quot;:1}" style="fill: rgb(255, 255, 255);"></path><path d="M320.98957,225.51174l-9.48641,-4.96078c-4.09047,-1.91469 -9.05125,-4.09047 -9.05125,-9.31235c0,-5.22188 4.09047,-9.57344 9.39938,-9.57344c3.82938,0 6.70141,1.56656 8.79016,4.09047h-3.13313v2.785l10.96594,-0.08703v-2.69797h-4.26453c-2.34984,-4.35156 -7.13656,-7.04953 -12.09735,-7.04953c-7.48469,0 -12.7936,5.22188 -12.7936,12.61953c0,4.00344 1.82766,6.87547 5.13484,8.96422l9.05125,4.78672c4.26453,2.08875 10.0086,4.43859 10.0086,10.09563c0,6.61438 -5.74406,11.74922 -12.27141,11.74922c-5.39594,0 -9.05125,-2.87203 -11.22703,-7.2236h3.39422v-2.785h-10.96594v2.785h4.1775c2.34984,6.09219 7.74578,10.18266 14.44719,10.18266c8.09391,0 15.5786,-6.17922 15.5786,-14.44719c0,-4.52563 -1.91469,-7.57172 -5.65703,-9.92156z" data-paper-data="{&quot;glyphName&quot;:&quot;S&quot;,&quot;glyphIndex&quot;:2,&quot;word&quot;:1}" style="fill: rgb(255, 255, 255);"></path><path d="M382.27409,246.57331v-44.90813h4.00344v-2.785h-11.05297v2.785h3.82938v18.97282h-30.28688v-18.97282h3.82938v-2.785h-11.05297v2.785h4.09047v44.90813h-4.09047v2.785h4.09047v0h3.13313v0h3.82938v-2.785h-3.82938v-22.88922h30.28688v22.88922h-3.82938v2.785h3.82938v0h3.22016v0h4.00344v-2.785z" data-paper-data="{&quot;glyphName&quot;:&quot;H&quot;,&quot;glyphIndex&quot;:3,&quot;word&quot;:1}" style="fill: rgb(255, 255, 255);"></path><path d="M450.69517,247.00846h-4.09047l-19.84313,-49.17267l-20.01719,49.17267h-3.82938v2.34984h2.95906v0h3.22016v0h4.78672v-2.34984h-3.82938l5.65703,-14.01203h21.93188l5.74406,14.01203h-3.74234v2.34984h4.69969v0h3.22016v0h3.13313zM416.92704,230.03736l9.83453,-24.10766l9.66047,24.10766z" data-paper-data="{&quot;glyphName&quot;:&quot;A&quot;,&quot;glyphIndex&quot;:4,&quot;word&quot;:1}" style="fill: rgb(255, 255, 255);"></path><path d="M485,202.36142v-2.95906h-28.89438v2.95906h12.88063v44.21188h-3.91641v2.785h10.96594v-2.785h-3.91641v-44.21188z" data-paper-data="{&quot;glyphName&quot;:&quot;T&quot;,&quot;glyphIndex&quot;:5,&quot;lastGlyphOfWord&quot;:true,&quot;word&quot;:1}" style="fill: rgb(255, 255, 255);"></path></g><g data-paper-data="{&quot;fillRule&quot;:&quot;nonzero&quot;,&quot;fillRuleOriginal&quot;:&quot;nonzero&quot;,&quot;isIcon&quot;:true,&quot;iconStyle&quot;:&quot;standalone&quot;,&quot;selectedEffects&quot;:{&quot;container&quot;:&quot;&quot;,&quot;transformation&quot;:&quot;&quot;,&quot;pattern&quot;:&quot;&quot;},&quot;bounds&quot;:{&quot;x&quot;:65,&quot;y&quot;:197.83579532199786,&quot;width&quot;:77.83246612543348,&quot;height&quot;:74.32844514044632},&quot;iconType&quot;:&quot;initial&quot;,&quot;initialText&quot;:&quot;A&quot;,&quot;rawInitialId&quot;:844,&quot;suitableAsStandaloneIcon&quot;:true}" fill-rule="evenodd" style="fill: rgb(255, 255, 255);"><g data-paper-data="{&quot;isPathIcon&quot;:true}" style="fill: rgb(255, 255, 255);"><path d="M138.05444,272.16424l-34.0852,-69.44442l-34.1909,69.44442h-4.77833l36.52722,-74.32845h4.77803l36.52722,74.32845z" fill="#26d07c" style="fill: rgb(255, 255, 255);"></path><path d="M116.07431,246.25509l-11.89207,11.78707l-11.78677,-11.78707l11.78677,-11.89207zM104.18223,240.52205l-5.73423,5.73303l5.73423,5.73403l5.73403,-5.73403z" fill="#101820" style="fill: rgb(255, 255, 255);"></path></g></g><path d="M158.10519,272.1642v-74.32841h1.44755v74.32841z" data-paper-data="{&quot;isShapeTextSeparator&quot;:true}" fill="#26d07c" fill-rule="nonzero" style="fill: rgb(255, 255, 255);"></path></g></g></svg>