<svg id="wave" style="transform:rotate(0deg); transition: 0.3s" viewBox="0 0 1440 490" version="1.1" xmlns="http://www.w3.org/2000/svg"><defs><linearGradient id="sw-gradient-0" x1="0" x2="0" y1="1" y2="0"><stop stop-color="rgba(35, 53, 84, 1)" offset="0%"></stop><stop stop-color="rgba(35, 53, 84, 1)" offset="100%"></stop></linearGradient></defs><path style="transform:translate(0, 0px); opacity:1" fill="url(#sw-gradient-0)" d="M0,343L60,318.5C120,294,240,245,360,196C480,147,600,98,720,73.5C840,49,960,49,1080,49C1200,49,1320,49,1440,106.2C1560,163,1680,278,1800,294C1920,310,2040,229,2160,204.2C2280,180,2400,212,2520,212.3C2640,212,2760,180,2880,196C3000,212,3120,278,3240,310.3C3360,343,3480,343,3600,302.2C3720,261,3840,180,3960,163.3C4080,147,4200,196,4320,220.5C4440,245,4560,245,4680,253.2C4800,261,4920,278,5040,285.8C5160,294,5280,294,5400,310.3C5520,327,5640,359,5760,318.5C5880,278,6000,163,6120,98C6240,33,6360,16,6480,8.2C6600,0,6720,0,6840,0C6960,0,7080,0,7200,40.8C7320,82,7440,163,7560,163.3C7680,163,7800,82,7920,40.8C8040,0,8160,0,8280,73.5C8400,147,8520,294,8580,367.5L8640,441L8640,490L8580,490C8520,490,8400,490,8280,490C8160,490,8040,490,7920,490C7800,490,7680,490,7560,490C7440,490,7320,490,7200,490C7080,490,6960,490,6840,490C6720,490,6600,490,6480,490C6360,490,6240,490,6120,490C6000,490,5880,490,5760,490C5640,490,5520,490,5400,490C5280,490,5160,490,5040,490C4920,490,4800,490,4680,490C4560,490,4440,490,4320,490C4200,490,4080,490,3960,490C3840,490,3720,490,3600,490C3480,490,3360,490,3240,490C3120,490,3000,490,2880,490C2760,490,2640,490,2520,490C2400,490,2280,490,2160,490C2040,490,1920,490,1800,490C1680,490,1560,490,1440,490C1320,490,1200,490,1080,490C960,490,840,490,720,490C600,490,480,490,360,490C240,490,120,490,60,490L0,490Z"></path></svg>